<svg height="512" viewBox="0 0 74 74" width="512" xmlns="http://www.w3.org/2000/svg"><g id="Numbers"><text font-family="ArialMT, Arial" font-size="18" transform="translate(31.994 -1010.544)">9<tspan x="-5.005" y="124">19</tspan><tspan x="-5.005" y="248">29</tspan><tspan x="-5.005" y="372">39</tspan><tspan x="-5.005" y="496">49</tspan><tspan x="-5.005" y="620">59</tspan><tspan x="-5.005" y="744">69</tspan><tspan x="-5.005" y="868">79</tspan><tspan x="-5.005" y="992">89</tspan><tspan x="-5.005" y="1116">99</tspan><tspan x="-10.011" y="1240">109</tspan><tspan letter-spacing="-.074em" x="-9.343" y="1364">1</tspan><tspan x="-.668" y="1364">19</tspan><tspan x="-10.011" y="1488">129</tspan><tspan x="-10.011" y="1612">139</tspan><tspan x="-10.011" y="1736">149</tspan><tspan x="-10.011" y="1860">159</tspan><tspan x="-10.011" y="1984">169</tspan><tspan x="-10.011" y="2108">179</tspan><tspan x="-10.011" y="2232">189</tspan><tspan x="-10.011" y="2356">199</tspan><tspan x="-10.011" y="2480">209</tspan><tspan x="-10.011" y="2604">219</tspan><tspan x="-10.011" y="2728">229</tspan><tspan x="-10.011" y="2852">239</tspan><tspan x="-10.011" y="2976">249</tspan><tspan x="-10.011" y="3100">259</tspan><tspan x="-10.011" y="3224">269</tspan><tspan x="-10.011" y="3348">279</tspan><tspan x="-10.011" y="3472">289</tspan><tspan x="-10.011" y="3596">299</tspan></text></g><g id="Icons"><path d="m56.428 72a1 1 0 0 1 -.668-.256l-22-19.75-22 19.75a1 1 0 0 1 -1.665-.744v-59.063a9.607 9.607 0 0 1 4.288-8.01 11.413 11.413 0 0 1 6.35-1.927h42.167a1 1 0 0 1 .556 1.832l-2.63 1.759a7.615 7.615 0 0 0 -3.4 6.346v59.063a1 1 0 0 1 -1 1zm-35.695-68a9.421 9.421 0 0 0 -5.241 1.591 7.613 7.613 0 0 0 -3.4 6.346v56.821l21-18.852a1 1 0 0 1 1.336 0l21 18.852v-56.821a9.609 9.609 0 0 1 4.18-7.937z"/></g></svg>